/* XPM */
static char *_bf7d08060ab47b4a292d213db1cc60bNaFph5EW8DExDBtJ[] = {
/* columns rows colors chars-per-pixel */
"64 64 3 1 ",
"  c black",
". c #21FF06",
"X c white",
/* pixels */
"                      .....................XXXXXXXXXXXXXXXXXXXXX",
"                      .....................XXXXXXXXXXXXXXXXXXXXX",
"                      .....................XXXXXXXXXXXXXXXXXXXXX",
"                      .....................XXXXXXXXXXXXXXXXXXXXX",
"                      .....................XXXXXXXXXXXXXXXXXXXXX",
"                      .....................XXXXXXXXXXXXXXXXXXXXX",
"                      .....................XXXXXXXXXXXXXXXXXXXXX",
"                      .....................XXXXXXXXXXXXXXXXXXXXX",
"                      .....................XXXXXXXXXXXXXXXXXXXXX",
"                      .....................XXXXXXXXXXXXXXXXXXXXX",
"                      .....................XXXXXXXXXXXXXXXXXXXXX",
"                      .....................XXXXXXXXXXXXXXXXXXXXX",
"                      .....................XXXXXXXXXXXXXXXXXXXXX",
"                      .....................XXXXXXXXXXXXXXXXXXXXX",
"                      .....................XXXXXXXXXXXXXXXXXXXXX",
"                      .....................XXXXXXXXXXXXXXXXXXXXX",
"                      .....................XXXXXXXXXXXXXXXXXXXXX",
"                      .....................XXXXXXXXXXXXXXXXXXXXX",
"                      .....................XXXXXXXXXXXXXXXXXXXXX",
"                      .....................XXXXXXXXXXXXXXXXXXXXX",
"                      .....................XXXXXXXXXXXXXXXXXXXXX",
"                      .....................XXXXXXXXXXXXXXXXXXXXX",
"                      .....................XXXXXXXXXXXXXXXXXXXXX",
"                      .....................XXXXXXXXXXXXXXXXXXXXX",
"                      .....................XXXXXXXXXXXXXXXXXXXXX",
"                      .....................XXXXXXXXXXXXXXXXXXXXX",
"                      .....................XXXXXXXXXXXXXXXXXXXXX",
"                      .....................XXXXXXXXXXXXXXXXXXXXX",
"                      .....................XXXXXXXXXXXXXXXXXXXXX",
"                      .....................XXXXXXXXXXXXXXXXXXXXX",
"                      .....................XXXXXXXXXXXXXXXXXXXXX",
"                      .....................XXXXXXXXXXXXXXXXXXXXX",
"                      .....................XXXXXXXXXXXXXXXXXXXXX",
"                      .....................XXXXXXXXXXXXXXXXXXXXX",
"                      .....................XXXXXXXXXXXXXXXXXXXXX",
"                      .....................XXXXXXXXXXXXXXXXXXXXX",
"                      .....................XXXXXXXXXXXXXXXXXXXXX",
"                      .....................XXXXXXXXXXXXXXXXXXXXX",
"                      .....................XXXXXXXXXXXXXXXXXXXXX",
"                      .....................XXXXXXXXXXXXXXXXXXXXX",
"                      .....................XXXXXXXXXXXXXXXXXXXXX",
"                      .....................XXXXXXXXXXXXXXXXXXXXX",
"                      .....................XXXXXXXXXXXXXXXXXXXXX",
"                      .....................XXXXXXXXXXXXXXXXXXXXX",
"                      .....................XXXXXXXXXXXXXXXXXXXXX",
"                      .....................XXXXXXXXXXXXXXXXXXXXX",
"                      .....................XXXXXXXXXXXXXXXXXXXXX",
"                      .....................XXXXXXXXXXXXXXXXXXXXX",
"                      .....................XXXXXXXXXXXXXXXXXXXXX",
"                      .....................XXXXXXXXXXXXXXXXXXXXX",
"                      .....................XXXXXXXXXXXXXXXXXXXXX",
"                      .....................XXXXXXXXXXXXXXXXXXXXX",
"                      .....................XXXXXXXXXXXXXXXXXXXXX",
"                      .....................XXXXXXXXXXXXXXXXXXXXX",
"                      .....................XXXXXXXXXXXXXXXXXXXXX",
"                      .....................XXXXXXXXXXXXXXXXXXXXX",
"                      .....................XXXXXXXXXXXXXXXXXXXXX",
"                      .....................XXXXXXXXXXXXXXXXXXXXX",
"                      .....................XXXXXXXXXXXXXXXXXXXXX",
"                      .....................XXXXXXXXXXXXXXXXXXXXX",
"                      .....................XXXXXXXXXXXXXXXXXXXXX",
"                      .....................XXXXXXXXXXXXXXXXXXXXX",
"                      .....................XXXXXXXXXXXXXXXXXXXXX",
"                      .....................XXXXXXXXXXXXXXXXXXXXX",
"                      .....................XXXXXXXXXXXXXXXXXXXXX"
};
